<svg width="48" height="48" viewBox="0 0 48 48" fill="none" xmlns="http://www.w3.org/2000/svg">
<path d="M29 22.9993C29 22.9993 24 26.9993 24 33.9993" stroke="white" stroke-width="1.8" stroke-linecap="round" stroke-linejoin="round"/>
<path d="M20.1265 18.126C22.6251 15.6274 22.6251 11.5763 20.1265 9.07768C16.3564 5.30751 8.06204 6.06156 8.06204 6.06156C8.06204 6.06156 7.308 14.3559 11.0782 18.126C13.5768 20.6246 17.6279 20.6246 20.1265 18.126Z" stroke="white" stroke-width="1.8" stroke-linecap="round" stroke-linejoin="round"/>
<path d="M29.6057 22.3938C31.7475 24.5354 35.2199 24.5354 37.3615 22.3938C40.5931 19.1622 39.9467 12.0528 39.9467 12.0528C39.9467 12.0528 32.8373 11.4064 29.6057 14.638C27.4641 16.7797 27.4641 20.252 29.6057 22.3938Z" stroke="white" stroke-width="1.8" stroke-linecap="round" stroke-linejoin="round"/>
<path d="M20.0005 19.0007C20.0005 19.0007 24.0005 24.0007 24.0005 33.9993" stroke="white" stroke-width="1.8" stroke-linecap="round" stroke-linejoin="round"/>
<path d="M42 42.0007C37.6024 37.0949 31.1682 34.0007 24 34.0007C16.8318 34.0007 10.3977 37.0949 6 42.0007" stroke="white" stroke-width="1.8" stroke-linecap="round" stroke-linejoin="round"/>
</svg>
