<svg width="48" height="48" viewBox="0 0 48 48" fill="none" xmlns="http://www.w3.org/2000/svg">
<path d="M24 44C35.0456 44 44 35.0456 44 24C44 12.9543 35.0456 4 24 4C12.9543 4 4 12.9543 4 24C4 26.7578 4.55814 29.3852 5.56764 31.7754C6.12556 33.0962 6.40452 33.7568 6.43906 34.256C6.4736 34.7552 6.32668 35.3042 6.03284 36.4024L4 44L11.5975 41.9672C12.6958 41.6734 13.2449 41.5264 13.744 41.561C14.2432 41.5954 14.9037 41.8744 16.2247 42.4324C18.6149 43.4418 21.2422 44 24 44Z" stroke="white" stroke-width="3" stroke-linejoin="round"/>
<path d="M17.1763 24.7546L18.9182 22.5912C19.6523 21.6794 20.5598 20.8306 20.631 19.6165C20.6488 19.3099 20.4332 17.9331 20.0016 15.1797C19.832 14.0976 18.8217 14 17.9466 14C16.8063 14 16.2361 14 15.6699 14.2586C14.9543 14.5855 14.2196 15.5046 14.0583 16.2747C13.9308 16.8839 14.0256 17.3037 14.2152 18.1434C15.0205 21.7096 16.9096 25.2316 19.839 28.161C22.7684 31.0904 26.2904 32.9796 29.8566 33.7848C30.6962 33.9744 31.116 34.0692 31.7254 33.9416C32.4954 33.7804 33.4144 33.0458 33.7414 32.33C34 31.7638 34 31.1938 34 30.0534C34 29.1782 33.9024 28.168 32.8202 27.9984C30.0668 27.5668 28.6902 27.3512 28.3834 27.369C27.1694 27.4402 26.3206 28.3476 25.4088 29.0818L23.2454 30.8236" stroke="white" stroke-width="3"/>
</svg>
